<svg width="550" height="320" xmlns="http://www.w3.org/2000/svg">

 <g>
  <title>Layer 1</title>
  <path stroke="#007f3f" id="svg_85" d="m41.75212,93.72948l5.73684,-8.82394l6.83666,-8.44304l8.92706,-8.0358l9.74493,-6.16792l10.90791,-5.34703l11.70032,-3.96332l6.11192,-0.74942l5.7794,-0.23082l7.02388,-0.13684l8.55804,1.66228l10.67136,3.94415l11.24629,7.24386l9.96686,10.28678l7.71626,10.41936l2.80939,5.79666l2.19519,7.80222l2.56482,11.30054l-0.045,16.41695" opacity="NaN" stroke-width="20" fill="none"/>
  <path stroke="#007f3f" id="svg_86" d="m35.19947,157.69962l3.97232,-10.44971l5.10723,-10.44295l7.20845,-10.73747l8.3381,-9.19579l9.61421,-8.78329l10.63229,-7.70267l5.79214,-2.74271l5.56312,-2.13001l6.78733,-2.44942l8.59935,-1.21056l11.06024,0.30538l12.21304,3.31577l11.52138,6.68878l9.36246,7.55968l3.7699,4.69492l3.53607,6.84264l4.52548,10.11331l2.91714,15.93608" opacity="NaN" stroke-width="20" fill="none"/>
  <path stroke="#007f3f" id="svg_87" d="m38.24588,226.02612l1.6719,-11.53001l2.7635,-11.94957l4.72144,-13.02097l6.12355,-11.96399l7.43405,-12.04642l8.63391,-11.3905l5.00173,-4.80878l4.90749,-4.13425l6.01792,-4.90044l8.01311,-4.39035l10.68855,-3.85768l12.41391,-1.39801l12.44118,2.1021l10.54619,3.74889l4.58557,3.09566l4.80118,5.24672l6.4231,8.0177l6.07291,14.21527" opacity="NaN" stroke-width="20" fill="none"/>
  <path stroke="#007f3f" id="svg_88" d="m54.90067,289.20151l-0.42033,-11.73361l0.5675,-12.4473l2.28163,-14.03839l3.83303,-13.39441l5.09305,-13.83917l6.37653,-13.53125l4.01183,-6.08934l4.03967,-5.40392l4.98386,-6.4613l7.01514,-6.51685l9.71189,-6.73929l11.82671,-4.81442l12.47444,-1.40108l10.92352,0.73495l5.00937,1.75209l5.60129,3.7946l7.67065,6.0524l8.42993,12.20732" opacity="NaN" stroke-width="20" fill="none"/>
  <ellipse stroke="#007f3f" ry="6.82181" rx="9.52058" id="svg_89" cy="288.91209" cx="54.89791" fill="#007f3f"/>
  <ellipse stroke="#007f3f" transform="matrix(-0.997738 -0.107633 -0.104867 1.02406 601.254 37.8933)" ry="6.625" rx="9.47917" id="svg_90" cy="240.35088" cx="539.00198" fill="#007f3f"/>
  <ellipse stroke="#007f3f" transform="matrix(-0.930025 -0.369015 -0.357003 0.961315 639.408 167.975)" ry="6.625" rx="9.47917" id="svg_91" cy="208.13464" cx="569.79359" fill="#007f3f"/>
  <ellipse stroke="#007f3f" transform="matrix(-0.840057 -0.545662 -0.524926 0.873243 618.474 256.131)" ry="6.625" rx="9.47917" id="svg_92" cy="174.89954" cx="577.34328" fill="#007f3f"/>
  <path stroke="#007f3f" id="svg_97" d="m510.65796,93.7663l-5.62799,-8.82393l-6.70709,-8.44307l-8.75787,-8.0358l-9.56027,-6.16794l-10.70111,-5.34702l-11.47845,-3.96333l-5.99591,-0.74941l-5.6698,-0.23083l-6.89069,-0.13684l-8.39569,1.66228l-10.46906,3.94416l-11.03305,7.24386l-9.77777,10.28677l-7.56992,10.41937l-2.75616,5.79665l-2.15356,7.80223l-2.51614,11.30055l0.04413,16.41687" opacity="NaN" stroke-width="20" fill="none"/>
  <path stroke="#007f3f" id="svg_98" d="m517.08643,157.73642l-3.89703,-10.44968l-5.01038,-10.44298l-7.07178,-10.73747l-8.17999,-9.1958l-9.43216,-8.78326l-10.4306,-7.70268l-5.68237,-2.74269l-5.45752,-2.13008l-6.65863,-2.44936l-8.43634,-1.21061l-10.85046,0.30542l-11.98138,3.31577l-11.30295,6.68879l-9.18491,7.55965l-3.69836,4.69495l-3.46899,6.84262l-4.4397,10.11334l-2.86185,15.9361" opacity="NaN" stroke-width="20" fill="none"/>
  <path stroke="#007f3f" id="svg_99" d="m514.09772,226.06293l-1.64014,-11.52997l-2.71118,-11.94962l-4.6319,-13.02094l-6.00745,-11.96402l-7.29303,-12.04642l-8.47037,-11.3905l-4.90692,-4.80875l-4.81439,-4.13425l-5.90387,-4.90045l-7.86115,-4.39038l-10.4859,-3.85767l-12.17841,-1.39801l-12.20526,2.10208l-10.34616,3.74892l-4.49866,3.09564l-4.71011,5.24672l-6.30127,8.01767l-5.95773,14.2153" opacity="NaN" stroke-width="20" fill="none"/>
  <path stroke="#007f3f" id="svg_100" d="m497.75885,289.23837l0.41229,-11.73367l-0.55676,-12.44727l-2.23846,-14.03836l-3.76019,-13.39447l-4.9967,-13.83914l-6.25565,-13.53125l-3.93567,-6.08932l-3.96313,-5.40396l-4.8894,-6.46127l-6.88208,-6.51685l-9.52771,-6.73926l-11.60254,-4.81445l-12.23773,-1.40106l-10.71643,0.73495l-4.91434,1.75211l-5.49503,3.79456l-7.52512,6.05243l-8.27011,12.20728" opacity="NaN" stroke-width="20" fill="none"/>
  <ellipse stroke="#007f3f" ry="6.82181" rx="9.5305" id="svg_101" cy="288.94889" cx="497.76066" fill="#007f3f"/>
  <ellipse stroke="#007f3f" transform="matrix(0.997416 -0.107633 0.104833 1.02406 390.988 37.8933)" ry="6.625" rx="9.47917" id="svg_102" cy="194.55651" cx="102.95902" fill="#007f3f"/>
  <ellipse stroke="#007f3f" transform="matrix(0.933212 -0.369015 0.358227 0.961315 348.839 167.975)" ry="6.625" rx="9.47917" id="svg_103" cy="51.12878" cx="160.68041" fill="#007f3f"/>
  <ellipse stroke="#007f3f" transform="matrix(0.840143 -0.548757 0.52498 0.878195 367.89 257.081)" ry="6.625" rx="9.47917" id="svg_104" cy="-57.75951" cx="205.79432" fill="#007f3f"/>
  <ellipse stroke="#007f3f" stroke-width="25" ry="122.02038" rx="124.72985" id="svg_1" cy="152.02039" cx="283.3408" fill="#00bf00"/>
  <g stroke="null" id="svg_58">
   <ellipse stroke="#ffffff" ry="30.72515" rx="37.16818" id="svg_55" cy="165.72516" cx="322.85103" fill="#ffffff"/>
   <ellipse stroke="#000000" ry="13.28655" rx="14.60178" id="svg_56" cy="159.9123" cx="309.84218" fill="#000000"/>
   <ellipse stroke="#ffffff" ry="5.81287" rx="6.1062" id="svg_57" cy="158.52829" cx="306.12536" fill="#ffffff"/>
  </g>
  <g stroke="null" id="svg_59">
   <ellipse stroke="#ffffff" ry="30.72515" rx="37.16816" id="svg_51" cy="165.72515" cx="241.08106" fill="#ffffff"/>
   <ellipse stroke="#000000" ry="13.28655" rx="14.60178" id="svg_52" cy="159.91229" cx="254.08991" fill="#000000"/>
   <ellipse stroke="#ffffff" ry="5.81287" rx="6.1062" id="svg_53" cy="158.52827" cx="257.80673" fill="#ffffff"/>
  </g>
  <g stroke="null" id="svg_73">
   <path stroke="#ffffff" id="svg_64" d="m349.96228,211.12383c-4.54425,12.25919 -19.91492,22.63574 -48.26355,27.15283c-28.3486,4.51703 -43.8219,-0.88116 -54.48622,-10.18518l0,0c15.51756,7.82745 32.6913,11.05011 54.67418,7.08453c21.98285,-3.96552 39.14435,-12.53267 48.57364,-25.0426" stroke-width="5" fill="none"/>
   <ellipse stroke="#ffffff" ry="2.05943" rx="2.00609" id="svg_71" cy="228.06341" cx="247.17358" fill="#ffffff"/>
   <ellipse stroke="#ffffff" ry="2.12378" rx="2.03696" id="svg_72" cy="210.55837" cx="350.16289" fill="#ffffff"/>
  </g>
 </g>
</svg>